<mxfile host="app.diagrams.net" modified="2023-03-01T02:05:39.262Z" agent="5.0 (Windows NT 10.0; Win64; x64) AppleWebKit/537.36 (KHTML, like Gecko) Chrome/107.0.0.0 Safari/537.36" etag="aWjCOzk9EWKADuKI8evL" version="20.8.23" type="github">
  <diagram name="第 1 页" id="yvUWGEL02yEKHM-XBLOZ">
    <mxGraphModel dx="1434" dy="755" grid="1" gridSize="10" guides="1" tooltips="1" connect="1" arrows="1" fold="1" page="1" pageScale="1" pageWidth="827" pageHeight="1169" math="0" shadow="0">
      <root>
        <mxCell id="0" />
        <mxCell id="1" parent="0" />
        <mxCell id="8WEs470nkHhceNyE-327-2" value="" style="rounded=0;whiteSpace=wrap;html=1;" vertex="1" parent="1">
          <mxGeometry x="240" y="180" width="370" height="220" as="geometry" />
        </mxCell>
        <mxCell id="8WEs470nkHhceNyE-327-3" value="&lt;font style=&quot;font-size: 15px;&quot;&gt;商务运作模型&lt;/font&gt;" style="text;html=1;strokeColor=none;fillColor=none;align=center;verticalAlign=middle;whiteSpace=wrap;rounded=0;" vertex="1" parent="1">
          <mxGeometry x="377.5" y="180" width="95" height="30" as="geometry" />
        </mxCell>
      </root>
    </mxGraphModel>
  </diagram>
</mxfile>
